<?xml version="1.0" encoding="UTF-8"?>
<svg width="34px" height="53px" viewBox="0 0 34 53" version="1.1" xmlns="http://www.w3.org/2000/svg" xmlns:xlink="http://www.w3.org/1999/xlink">
    <!-- Generator: Sketch 49.2 (51160) - http://www.bohemiancoding.com/sketch -->
    <title>Fill 1</title>
    <desc>Created with Sketch.</desc>
    <defs></defs>
    <g id="Designs-(Light)" stroke="none" stroke-width="1" fill="none" fill-rule="evenodd">
        <g id="Mike-King---Work---Case-Studies---Tour-Aloha" transform="translate(-300.000000, -3322.000000)">
            <g id="section--one-column--custom-animation--light-grey-bg" transform="translate(0.000000, 3256.000000)">
                <g id="animation">
                    <g id="Imported-Layers-Copy-15" transform="translate(300.000000, 66.000000)">
                        <path d="M33.7212422,15.3941909 C32.8173913,7.27705394 25.9709317,1.23153527 19.1962733,0.343070539 C9.14409938,-0.972033195 0.0316770186,7.24186722 0.141490683,17.8330705 C0.141490683,20.049834 0.409689441,22.2116183 1.32832298,24.2414523 C5.20559006,32.8028216 9.07440994,41.36639 12.9664596,49.9167635 C13.2621118,50.5677178 13.6295652,51.2362656 14.1195031,51.7288797 C16.3559006,53.983029 19.635528,53.1077593 21.08,49.9057676 C24.8749068,41.5071369 28.6296894,33.0909129 32.4668323,24.7142739 C33.8395031,21.716805 34.0781366,18.5873859 33.7212422,15.3941909 L33.7212422,15.3941909 Z M17.7771429,26.5615768 C13.3381366,27.0409959 9.05751553,23.4717427 8.63304348,18.9370539 C8.1536646,13.7975934 11.4396273,9.53780083 16.2207453,9.04298755 C20.9722981,8.55037344 25.3458385,12.5616598 25.3922981,17.3272614 C25.8231056,21.859751 22.3534161,26.0667635 17.7771429,26.5615768 L17.7771429,26.5615768 Z" id="Fill-1" fill="#98D449"></path>
                        <path d="M25.3918758,17.3270415 C25.8228944,21.8604108 22.3538385,26.0674232 17.7771429,26.5617967 C13.3375031,27.0414357 9.05709317,23.4717427 8.63367702,18.936834 C8.15387578,13.7980332 11.439205,9.53714108 16.2211677,9.04188797 C20.972087,8.54993361 25.3462609,12.5625394 25.3918758,17.3270415" id="Fill-2" fill="#FFFFFF"></path>
                    </g>
                </g>
            </g>
        </g>
    </g>
</svg>