<?xml version="1.0" encoding="UTF-8"?>
<svg width="36px" height="47px" viewBox="0 0 36 47" version="1.1" xmlns="http://www.w3.org/2000/svg" xmlns:xlink="http://www.w3.org/1999/xlink">
    <!-- Generator: Sketch 49.2 (51160) - http://www.bohemiancoding.com/sketch -->
    <title>Fill 2</title>
    <desc>Created with Sketch.</desc>
    <defs></defs>
    <g id="Designs-(Light)" stroke="none" stroke-width="1" fill="none" fill-rule="evenodd">
        <g id="Mike-King---Work---Case-Studies---Tour-Aloha" transform="translate(-702.000000, -559.000000)" fill="#4DB6AC">
            <g id="section--one-column--inline-images" transform="translate(0.000000, 456.000000)">
                <g id="body" transform="translate(372.000000, 103.000000)">
                    <g id="Group-10">
                        <path d="M330,17.9817055 C330,21.1899801 331.879478,25.468055 334.422733,29.7900363 C335.177511,29.8637768 335.943558,29.8682801 336.692138,29.9138754 C338.227895,30.0182942 339.638561,30.0835911 341.165866,29.7934138 C343.892251,29.2752601 346.585954,28.6003375 349.078777,27.4241484 C350.150793,26.9223189 351.327333,26.3470305 352.425832,25.9034617 C353.236113,25.5733181 354.083019,25.3186038 354.928798,25.1272162 C356.63867,24.7663944 358.216688,24.6366449 359.92008,24.8271881 C361.245097,24.9667884 362.540813,25.2558399 363.78807,25.6619756 C365.136471,22.8232478 366,20.1564873 366,17.9817055 C366,8.05066135 357.941148,1.77635684e-15 348,1.77635684e-15 C338.058852,1.77635684e-15 330,8.05066135 330,17.9817055 Z M337.827545,18.8927665 C337.662446,18.6341119 337.407472,18.5012664 337.282662,18.1989866 C337.214763,18.0292709 337.168558,17.8342245 337.161233,17.6487474 C337.149963,15.5978045 339.669552,15.3808048 339.669552,15.3808048 C341.420558,15.1626793 343.095494,15.7300871 344.389801,16.9406134 C344.451784,17.0061918 344.968492,17.6633829 344.896649,17.6999717 C344.809028,17.751196 344.493199,17.6608498 344.406424,17.6270756 C343.751381,17.3855895 343.848863,17.3920629 343.157758,17.4173936 C342.781355,17.4303404 342.6881,17.4725583 342.319304,17.5395439 C341.825416,17.6937798 341.99615,17.9501828 341.99615,17.9501828 C342.355085,18.4252743 342.711202,18.3658878 343.265946,18.4537009 C343.835903,18.5434842 344.081861,18.7323387 344.628434,18.9209118 C345.018923,19.054883 345.615928,19.1632422 345.928658,19.5347592 C346.306751,19.9769208 345.366871,19.8356317 345.148805,19.8401349 C344.547011,19.8497043 343.933103,19.9408949 343.345959,20.0562903 C342.688381,20.1857584 342.000657,20.3672951 341.410133,20.6932168 C340.646621,21.1131437 340.233593,21.9023359 339.29653,22.0427806 C338.443144,22.1697156 337.927844,21.4539824 337.841632,20.6484659 C337.779931,20.0819025 338.152108,19.4157049 337.827545,18.8927665 Z M347.018986,25.6785813 C347.018986,25.6785813 347.050259,25.7483814 347.151121,26.1660566 C345.866393,26.6673232 343.808011,27.3290175 340.439544,27.9223189 C340.417568,27.7711791 340.388549,27.5249083 340.406017,27.4134532 C340.406017,27.4134532 340.408552,26.9144383 340.083708,26.7357161 C340.083708,26.7357161 338.839268,26.0714887 339.425566,24.1455106 C339.425566,24.1455106 339.560801,21.6619756 345.387719,20.6177876 C345.387719,20.6177876 345.967537,20.4390654 345.998247,20.6017448 C345.998247,20.6017448 346.056003,20.6723894 345.46238,20.9096536 C345.46238,20.9096536 343.666296,21.4430057 343.742084,23.1221501 C343.742084,23.1221501 343.723207,23.3577257 343.815618,23.4683364 C343.815618,23.4683364 343.968038,23.5609342 344.182723,23.2867997 C344.182723,23.2867997 344.872983,22.609344 345.289674,22.4784687 C345.289674,22.4784687 345.656216,22.2395157 345.509994,22.5674076 C345.509994,22.5674076 344.892423,23.4213339 345.271361,23.9527158 C345.271361,23.9527158 345.419274,24.2913029 345.66974,24.0388402 C345.66974,24.0388402 346.561161,22.8353502 347.094492,22.4573598 C347.094492,22.4573598 347.562178,21.9921192 347.408067,22.4458203 C347.408067,22.4458203 346.678646,24.3259216 347.018986,25.6785813 Z M346.829376,18.4430058 C341.201083,10.8573036 333.828828,12.7188291 333.828828,12.7188291 C333.52455,12.8224035 333.398895,12.5471432 333.398895,12.5471432 C333.333532,12.3042498 333.71726,12.2268504 333.71726,12.2268504 C342.536243,10.200394 347.763903,18.0959751 347.763903,18.0959751 C348.136643,18.7182661 347.834619,19.0033773 347.834619,19.0033773 C347.377076,19.1491696 346.829376,18.4430058 346.829376,18.4430058 Z M348.297234,25.8235292 C348.093255,24.6805514 348.016059,22.9468053 348.587425,20.9037431 C348.587425,20.9037431 348.754778,20.6431183 348.79563,20.9203488 C348.79563,20.9203488 349.118221,22.4249928 349.765656,23.0115394 C349.765656,23.0115394 350.136988,23.4337178 350.08712,22.8297212 L350.156146,22.4309033 C350.156146,22.4309033 350.259544,22.2541512 350.330824,22.5232196 C350.330824,22.5232196 351.214074,23.7354347 351.669646,24.1618349 C350.735119,24.6068109 349.356572,25.2248802 348.316392,25.809738 C348.316392,25.809738 348.306532,25.8167743 348.297234,25.8235292 Z M349.666766,20.3605402 C349.463632,20.2586545 349.512091,20.0911904 349.687051,20.0562903 C349.861165,20.0289894 350.041196,20.1018856 350.191927,20.1396002 C350.53762,20.226006 350.885285,20.3070643 351.229007,20.4083871 C352.231433,20.6977201 353.21949,21.0512241 354.140775,21.5493947 C354.664809,21.8330986 355.173629,22.1739373 355.606098,22.591894 L352.911831,23.3715168 C352.911831,23.3715168 351.161953,21.1207429 349.666766,20.3605402 Z M357.969322,18.7852517 C357.969322,18.7852517 357.599962,19.1787221 357.551503,19.5584012 C357.551503,19.5584012 357.472335,21.7793412 355.754574,21.164368 C354.063297,20.5609343 352.848159,19.9361102 351.225907,19.4303404 C350.92811,19.3374611 349.972452,18.9504642 349.891875,18.6141288 C349.724522,17.9009286 351.690494,18.1466365 351.963499,18.223473 C352.262424,18.3132563 352.651505,18.4596114 352.964798,18.4252743 C353.607726,18.3571628 353.14004,17.9895861 352.930426,17.7849703 C352.762792,17.6191949 352.537683,17.5569939 352.317645,17.4748099 C352.023791,17.3689838 351.73839,17.3698282 351.463413,17.2169996 C350.695112,16.7914437 353.975395,16.3501265 352.430904,15.7914437 C351.515535,15.4607373 350.49874,15.8356317 349.879478,16.5524907 C349.797211,16.6464958 349.671555,16.8837601 349.516036,16.8584294 C349.498286,16.8558963 349.488143,16.840135 349.481945,16.8187446 C349.356853,16.8744721 349.199643,16.8316914 349.206405,16.2496481 C349.218238,15.2209399 349.247257,14.297495 349.453771,13.2775119 C349.507865,13.0160427 349.536321,12.5555867 349.163017,12.6101885 C348.792813,12.6631015 348.525724,13.4016323 348.393307,13.6749225 C348.329352,13.8125527 348.33217,14.0503798 348.178341,14.0990711 C347.763903,14.2330424 347.342704,11.8831972 346.920096,12.9028989 C346.694423,13.447509 346.742319,13.9327328 346.829376,14.4863494 C346.866565,14.7205178 346.92404,14.9504643 347.011097,15.1671825 C347.081532,15.3326765 347.227754,15.5325076 347.194509,15.7207992 C347.177041,15.8198704 347.113368,15.8367575 347.030819,15.8097381 C346.842618,15.7438783 346.567359,15.4452574 346.538903,15.4171122 C346.29689,15.1550801 346.017969,14.9262594 345.777364,14.6535321 C345.198673,14.0011257 344.639703,13.2772304 344.369234,12.4297776 C344.238226,12.0174499 344.155113,11.5057697 344.311759,11.0869687 C344.538841,10.4714325 344.857205,9.8809456 345.218676,9.33436525 C345.784407,8.48916402 346.616663,7.48353498 347.739673,7.51871652 C348.1296,7.52800444 348.506848,7.6645088 348.855922,7.83957213 C349.186965,8.00591043 349.510964,8.19279476 349.812143,8.40951302 C350.079231,8.59499008 350.294761,8.77399374 350.632566,8.81114544 C351.263097,8.87306494 352.133106,8.60512236 352.596002,9.20264558 C352.934652,9.63974099 352.781105,10.2989023 352.635164,10.7776526 C352.382445,11.6433998 351.901798,12.2938361 351.474119,13.0683928 C351.474119,13.0683928 351.091518,13.7602025 350.730611,14.5243455 C351.28789,13.8542076 351.949976,13.2755417 352.767863,12.8840416 C353.163706,12.6965943 353.518978,12.5409512 353.975395,12.530256 C354.592121,12.5187165 355.114464,12.9062763 355.71992,12.9656627 C356.116045,13.0053475 356.609651,12.8513931 356.65163,13.3954404 C356.676987,13.7264283 356.649658,14.0109765 356.810249,14.3295805 C357.042402,14.8063607 357.450923,15.1778777 357.907621,15.4584857 C357.907621,15.4584857 360.033057,16.1806922 358.355867,18.3915 C358.355867,18.3915 358.141182,18.6248239 357.969322,18.7852517 Z M350.736809,29.3211368 C352.253408,28.5941456 353.822129,27.8418236 355.46861,27.4204895 C356.915338,27.0374329 358.266556,26.8193074 359.793579,26.8322542 C360.877428,26.842668 361.971137,26.9431464 363.063156,27.1148323 C362.738593,27.7390935 362.394591,28.3684208 362.034529,29.0005627 C361.296092,28.8708132 360.553429,28.7754008 359.811329,28.7345903 C359.190377,28.6971571 358.561255,28.736279 357.945092,28.8620881 C357.633489,28.9242891 355.090516,29.5316631 355.487486,30.0889387 C355.661882,30.3391498 356.39722,30.1849139 356.640924,30.1609905 C357.204683,30.1072331 357.887054,30.0858427 358.447151,30.1018855 C359.368999,30.1356598 360.267464,30.2772303 361.152687,30.5026736 C357.29653,36.8843228 352.137895,43.2386712 349.5783,46.2668164 C348.752806,47.2434559 347.248603,47.2448631 346.423109,46.2682237 C343.990296,43.390374 339.207501,37.5052066 335.428258,31.4480718 C335.748595,31.5519277 336.072313,31.6462142 336.399411,31.7233321 C338.067022,32.1162395 339.791826,32.163805 341.480568,32.0126651 C343.161984,31.8530816 344.82227,31.5052066 346.424518,31.0115393 C347.905336,30.5609342 349.351219,29.9969038 350.736809,29.3211368 Z" id="Fill-2"></path>
                    </g>
                </g>
            </g>
        </g>
    </g>
</svg>