<?xml version="1.0" encoding="UTF-8"?>
<svg width="48px" height="43px" viewBox="0 0 48 43" version="1.1" xmlns="http://www.w3.org/2000/svg" xmlns:xlink="http://www.w3.org/1999/xlink">
    <!-- Generator: Sketch 49.2 (51160) - http://www.bohemiancoding.com/sketch -->
    <title>engineering</title>
    <desc>Created with Sketch.</desc>
    <defs></defs>
    <g id="Designs-(Light)" stroke="none" stroke-width="1" fill="none" fill-rule="evenodd" stroke-linecap="round" stroke-linejoin="round">
        <g id="Mike-King---Work---Case-Study---GoHawaii" transform="translate(-635.000000, -7335.000000)" stroke="#FFFFFF" stroke-width="0.857142857">
            <g id="section--process" transform="translate(0.000000, 4456.000000)">
                <g id="process__software-development--left-justified" transform="translate(183.000000, 2879.000000)">
                    <g id="Group-29">
                        <g id="Page-1" transform="translate(452.000000, 0.000000)">
                            <polygon id="Stroke-1" points="23.7726857 6.47782162 19.1018286 3.95157838 23.7726857 1.4259027 28.4435429 3.95157838"></polygon>
                            <polyline id="Stroke-3" points="28.4434286 9.09453514 23.7725714 11.6207784 19.1017143 9.09453514"></polyline>
                            <path d="M19.1019429,3.95174865 L19.1019429,9.09447838" id="Stroke-4"></path>
                            <path d="M23.7726857,6.47782162 L23.7726857,11.6205514" id="Stroke-5"></path>
                            <path d="M28.4434286,3.95174865 L28.4434286,9.09447838" id="Stroke-6"></path>
                            <polygon id="Stroke-7" points="23.7726857 26.7135351 19.1018286 24.1872919 23.7726857 21.6616162 28.4435429 24.1872919"></polygon>
                            <polyline id="Stroke-8" points="28.4434286 29.3304757 23.7725714 31.8567189 19.1017143 29.3304757"></polyline>
                            <path d="M19.1019429,24.1874622 L19.1019429,29.3307595" id="Stroke-9"></path>
                            <path d="M23.7726857,26.7135351 L23.7726857,31.8568324" id="Stroke-10"></path>
                            <path d="M28.4434286,24.1874622 L28.4434286,29.3307595" id="Stroke-11"></path>
                            <g id="Group-20" transform="translate(0.000000, 32.137608)">
                                <polygon id="Stroke-12" points="5.09971429 5.21532162 0.428285714 2.68907838 5.09971429 0.163402703 9.77057143 2.68907838"></polygon>
                                <polyline id="Stroke-14" points="9.77045714 7.83197838 5.0996 10.3582216 0.428171429 7.83197838"></polyline>
                                <path d="M0.4284,2.68924865 L0.4284,7.83197838" id="Stroke-16"></path>
                                <path d="M5.09971429,5.21532162 L5.09971429,10.3580514" id="Stroke-18"></path>
                            </g>
                            <path d="M9.77045714,34.8268568 L9.77045714,39.9695865" id="Stroke-21"></path>
                            <g id="Group-26" transform="translate(37.714286, 31.570041)">
                                <polygon id="Stroke-22" points="4.73862857 5.24301892 0.0677714286 2.71677568 4.73862857 0.1911 9.40948571 2.71677568"></polygon>
                                <polyline id="Stroke-24" points="9.40942857 7.85995946 4.73857143 10.3862027 0.0677142857 7.85995946"></polyline>
                            </g>
                            <path d="M37.7821714,34.2869865 L37.7821714,39.4302838" id="Stroke-27"></path>
                            <g id="Group-33" transform="translate(42.285714, 33.840311)">
                                <path d="M0.1672,2.97274865 L0.1672,8.11604595" id="Stroke-28"></path>
                                <g id="Group-32" transform="translate(4.571429, 0.000000)">
                                    <path d="M0.266571429,0.446675676 L0.266571429,5.58997297" id="Stroke-30"></path>
                                </g>
                            </g>
                            <polygon id="Stroke-34" points="23.7726857 16.6411405 23.7726857 12.9956541 23.7726857 16.6411405 23.7726857 20.2860595"></polygon>
                            <g id="Group-39" transform="translate(10.857143, 29.867338)">
                                <path d="M3.57902857,1.98921081 C5.35902857,1.02661622 6.80245714,0.245643243 6.80245714,0.245643243 C6.80245714,0.245643243 5.35902857,1.02661622 3.57902857,1.98921081 C1.79902857,2.95180541 0.3556,3.73221081 0.3556,3.73221081 C0.3556,3.73221081 1.79902857,2.95180541 3.57902857,1.98921081 Z" id="Stroke-35"></path>
                                <path d="M22.2559429,1.89357568 C20.4759429,0.930981081 19.0319429,0.150575676 19.0319429,0.150575676 C19.0319429,0.150575676 20.4759429,0.930981081 22.2559429,1.89357568 C24.0359429,2.85617027 25.4793714,3.63714324 25.4793714,3.63714324 C25.4793714,3.63714324 24.0359429,2.85617027 22.2559429,1.89357568 Z" id="Stroke-37"></path>
                            </g>
                        </g>
                    </g>
                </g>
            </g>
        </g>
    </g>
</svg>