<?xml version="1.0" encoding="UTF-8"?>
<svg width="50px" height="49px" viewBox="0 0 50 49" version="1.1" xmlns="http://www.w3.org/2000/svg" xmlns:xlink="http://www.w3.org/1999/xlink">
    <!-- Generator: Sketch 49.2 (51160) - http://www.bohemiancoding.com/sketch -->
    <title>magnifying-glass</title>
    <desc>Created with Sketch.</desc>
    <defs></defs>
    <g id="Designs-(Light)" stroke="none" stroke-width="1" fill="none" fill-rule="evenodd" stroke-linecap="round" stroke-linejoin="round">
        <g id="Mike-King---Work---Case-Study---GoHawaii" transform="translate(-759.000000, -4905.000000)" stroke="#FFFFFF" stroke-width="0.99375">
            <g id="section--process" transform="translate(0.000000, 4456.000000)">
                <g id="process__discovery--right-justified" transform="translate(115.000000, 432.000000)">
                    <g id="Group-15" transform="translate(644.000000, 17.000000)">
                        <g id="icons/magnifying-glass">
                            <path d="M26.6246,26.7328 C21.5502667,31.8071333 13.3232667,31.8071333 8.24893333,26.7328 C3.1746,21.6584667 3.1746,13.4314667 8.24893333,8.35713333 C13.3232667,3.2828 21.5502667,3.2828 26.6246,8.35713333 C31.6989333,13.4314667 31.6989333,21.6584667 26.6246,26.7328 Z M29.0339333,5.9478 C22.6589333,-0.4272 12.3229333,-0.4272 5.94793333,5.9478 C-0.427066667,12.3228 -0.427066667,22.6588 5.94793333,29.0338 C11.8812667,34.9671333 21.2436,35.3751333 27.6522667,30.2641333 L46.3549333,48.9668 L48.9666,46.3548 L30.2642667,27.6521333 C35.3749333,21.2434667 34.9669333,11.8811333 29.0339333,5.9478 Z" id="Stroke-1"></path>
                            <path d="M20.5124667,10.6563333 L10.9251333,20.2436667" id="Stroke-3"></path>
                            <path d="M13.4014667,10.2118333 L10.4014667,13.2118333" id="Stroke-5"></path>
                        </g>
                    </g>
                </g>
            </g>
        </g>
    </g>
</svg>