<?xml version="1.0" encoding="UTF-8"?>
<svg width="49px" height="42px" viewBox="0 0 49 42" version="1.1" xmlns="http://www.w3.org/2000/svg" xmlns:xlink="http://www.w3.org/1999/xlink">
    <!-- Generator: Sketch 49.2 (51160) - http://www.bohemiancoding.com/sketch -->
    <title>strategy</title>
    <desc>Created with Sketch.</desc>
    <defs></defs>
    <g id="Designs-(Light)" stroke="none" stroke-width="1" fill="none" fill-rule="evenodd">
        <g id="Mike-King---Work---Case-Study---GoHawaii" transform="translate(-759.000000, -6567.000000)" stroke="#FFFFFF" stroke-width="0.847058824">
            <g id="section--process" transform="translate(0.000000, 4456.000000)">
                <g id="process__creative-direction--right-justified" transform="translate(115.000000, 2110.000000)">
                    <g id="Group-12" transform="translate(644.000000, 0.000000)">
                        <g id="icons/strategy" transform="translate(0.000000, 1.000000)">
                            <path d="M9.85219408,36.4979706 C9.85219408,38.9258587 7.9023716,40.8941455 5.49697515,40.8941455 C3.09186272,40.8941455 1.14204024,38.9258587 1.14204024,36.4979706 C1.14204024,34.0697958 3.09186272,32.1017958 5.49697515,32.1017958 C7.9023716,32.1017958 9.85219408,34.0697958 9.85219408,36.4979706 Z" id="Stroke-1"></path>
                            <path d="M5.49697515,32.1016524 C5.49697515,32.1016524 14.5857325,10.6936315 48.8580166,8.01773636 C48.8580166,8.01773636 43.5089988,6.10621888 39.5326675,5.24607902" id="Stroke-3" stroke-linecap="round" stroke-linejoin="round"></path>
                            <path d="M39.5326675,14.2634126 C43.4314604,9.83483916 48.8580166,8.01765035 48.8580166,8.01765035" id="Stroke-5" stroke-linecap="round" stroke-linejoin="round"></path>
                            <path d="M2.4675787,10.2238231 L11.9116497,15.497914" id="Stroke-7" stroke-linecap="round" stroke-linejoin="round"></path>
                            <path d="M4.5772213,17.6276776 L9.80183669,8.09417413" id="Stroke-9" stroke-linecap="round" stroke-linejoin="round"></path>
                            <path d="M21.0810982,0.160158042 L28.7295716,7.84751469" id="Stroke-11" stroke-linecap="round" stroke-linejoin="round"></path>
                            <path d="M21.097742,7.86417273 L28.7129846,0.143270629" id="Stroke-13" stroke-linecap="round" stroke-linejoin="round"></path>
                            <path d="M21.0810982,21.9503678 L28.7295716,29.6377245" id="Stroke-15" stroke-linecap="round" stroke-linejoin="round"></path>
                            <path d="M21.097742,29.6543825 L28.7129846,21.9334804" id="Stroke-17" stroke-linecap="round" stroke-linejoin="round"></path>
                        </g>
                    </g>
                </g>
            </g>
        </g>
    </g>
</svg>