<?xml version="1.0" encoding="UTF-8"?>
<svg width="292px" height="275px" viewBox="0 0 292 275" version="1.1" xmlns="http://www.w3.org/2000/svg" xmlns:xlink="http://www.w3.org/1999/xlink">
    <!-- Generator: Sketch 49.2 (51160) - http://www.bohemiancoding.com/sketch -->
    <title>teacup-loading</title>
    <desc>Created with Sketch.</desc>
    <defs>
        <polygon id="path-1" points="0 0.689740541 117.769722 0.689740541 117.769722 77.6396396 0 77.6396396"></polygon>
        <polygon id="path-3" points="0.599515037 0.550288288 58.3395556 0.550288288 58.3395556 102.504561 0.599515037 102.504561"></polygon>
    </defs>
    <g id="Designs-(Light)" stroke="none" stroke-width="1" fill="none" fill-rule="evenodd">
        <g id="Mike-King---Work---Case-Studies---Teacup-Analytics" transform="translate(-279.000000, -1582.000000)">
            <g id="section--two-column" transform="translate(0.000000, 1456.000000)">
                <g id="background">
                    <g id="monsterra-leaf" transform="translate(279.000000, 125.000000)">
                        <g id="teacup-loading">
                            <path d="M86.4903444,186.124054 C86.4903444,186.124054 84.9001308,178.820919 90.5347462,168.489838 C96.1693615,158.158757 89.0396949,149.833784 86.4077034,147.20155 C83.775712,144.569315 89.4629171,131.235333 89.4629171,129.356955 C89.4629171,129.356955 81.7697889,143.13173 81.7697889,148.453802 C81.7697889,153.775874 87.2090709,159.097946 87.2090709,161.915514 C87.2090709,164.733081 83.647994,175.019081 83.647994,178.820919 C83.647994,182.622757 86.4903444,186.124054 86.4903444,186.124054" id="Fill-1" fill="#E6F4FA"></path>
                            <path d="M100.743167,248.401564 C100.743167,248.111041 102.148064,246.818717 102.148064,246.818717 C99.9793632,245.96969 98.0986538,246.402969 98.0986538,246.430519 C98.0986538,246.430519 96.3707051,250.147204 95.6194231,250.903564 C95.161141,251.364393 94.6652949,252.210915 94.7404231,252.904663 L94.282141,253.110032 L93.5208419,253.661023 C93.5208419,254.399852 93.5233462,254.928303 95.9750299,254.928303 C96.9266538,254.928303 98.4317222,254.928303 98.7923376,254.297168 L98.4717906,253.488213 C98.5218761,253.393041 98.6320641,253.335438 98.6320641,253.215222 C98.6320641,252.128267 100.743167,249.423402 100.743167,248.401564" id="Fill-3" fill="#E6F4FA"></path>
                            <path d="M114.954418,216.503443 L115.755785,215.466578 C114.894315,214.92811 113.687256,214.815407 112.663008,215.248686 L112.342461,216.313101 C112.299888,216.325623 112.279854,216.313101 112.239785,216.325623 C109.625324,217.031894 108.671196,219.894542 109.304777,220.530686 L109.307281,220.530686 L108.696238,220.798668 C108.696238,221.665227 108.894076,222.248777 111.758965,222.248777 C113.369213,222.248777 114.112982,222.153605 114.112982,221.577569 L113.882589,221.006542 C114.105469,220.911371 114.298298,220.793659 114.453563,220.63838 C115.600521,219.491317 115.560452,217.089497 115.560452,217.089497 C115.560452,217.089497 115.382649,216.771425 114.954418,216.503443" id="Fill-5" fill="#E6F4FA"></path>
                            <g id="Group-9" transform="translate(0.000000, 197.810072)">
                                <mask id="mask-2" fill="white">
                                    <use xlink:href="#path-1"></use>
                                </mask>
                                <g id="Clip-8"></g>
                                <path d="M58.8967564,0.689740541 C21.7809188,0.689740541 -0.00125213675,7.33168649 -0.00125213675,12.3757586 C-0.00125213675,15.9246414 3.99055983,14.825164 8.24031197,25.0184973 C16.7272949,45.3650919 22.735047,58.4636505 36.1279017,64.5295604 C35.2664316,67.9707495 32.5517991,69.4358847 32.1761581,70.2874162 C31.3747906,72.123218 37.2448077,77.6406414 58.8967564,77.6406414 C80.5487051,77.6406414 86.7167308,72.5464793 85.2442179,70.2648757 C84.8560556,69.3707676 82.8726709,68.8322991 81.8434145,65.4587315 L81.7983376,65.4787676 C95.8498162,60.0540108 100.069517,47.1482991 109.007269,24.8056144 C113.264534,14.6147856 117.769722,15.9246414 117.769722,12.3757586 C117.769722,7.33168649 96.0100897,0.689740541 58.8967564,0.689740541" id="Fill-7" fill="#E6F4FA" mask="url(#mask-2)"></path>
                            </g>
                            <path d="M133.482035,210.677465 C130.461881,209.966186 124.108539,210.469591 124.253787,210.70251 C116.750984,211.523987 113.793437,216.630672 113.502941,221.016059 C113.169873,227.297357 117.048992,229.568942 120.98571,229.521357 C123.31218,229.493807 124.509223,228.542095 125.072685,227.422582 C125.413266,226.736348 125.340642,226.44833 124.253787,225.929897 C123.134377,225.401447 122.17524,223.913771 122.152702,221.79496 C122.102616,218.2586 125.230454,216.49042 127.902514,216.455357 C132.860975,216.397753 135.96377,219.34305 136.056428,226.816492 C136.129052,232.534276 130.997796,239.900023 122.152702,240.538672 C115.158266,241.042077 110.405155,242.096474 107.447608,243.448906 C101.980779,245.948402 98.5474197,248.230005 97.9288641,252.382474 C97.4029667,255.931357 100.2353,258.24051 102.782146,258.210456 C103.761317,258.210456 104.485052,258.210456 105.351531,257.819753 C106.526035,257.271267 107.723078,256.404708 108.066163,253.64224 C108.541975,249.807843 111.274138,247.694041 115.756787,247.067915 C119.473129,246.549483 122.615992,246.584546 126.662898,245.88078 C137.361155,244.019933 145.502548,237.638456 145.359804,226.037591 C145.277163,219.037501 141.61842,212.590906 133.482035,210.677465" id="Fill-10" fill="#E6F4FA"></path>
                            <path d="M271.023998,120.960604 C267.367759,116.55518 276.560947,78.7947658 259.564443,58.3229459 C254.445708,52.1568559 245.966238,45.0666036 236.294733,44.1724955 C226.625733,43.2733784 216.310631,49.8827658 215.391562,46.2837928 C213.941588,40.5985676 212.879776,38.6325315 212.879776,38.6325315 C205.822733,42.800027 201.084648,44.9964775 174.323981,67.2189459 C147.563315,89.4439189 143.679186,92.6697207 138.931084,100.047991 C138.931084,100.047991 140.556357,101.54318 145.875434,104.010117 C149.251195,105.577937 140.801776,114.546568 139.905246,124.221468 C139.011221,133.89136 144.400417,143.553739 149.514144,149.712315 C166.513152,170.18664 205.301844,168.102892 208.958084,172.503306 C210.788708,174.704766 208.05905,181.431865 210.072485,183.853721 C212.083417,186.273072 225.904503,183.35282 252.449802,161.305667 C278.34399,139.799486 284.196477,126.38536 282.185545,123.963505 C280.172109,121.541649 272.852118,123.159559 271.023998,120.960604" id="Fill-14" fill="#E6F4FA"></path>
                            <g id="Group-18" transform="translate(232.897436, 0.954216)">
                                <mask id="mask-4" fill="white">
                                    <use xlink:href="#path-3"></use>
                                </mask>
                                <g id="Clip-17"></g>
                                <path d="M10.9461795,7.71943243 C-4.80570085,20.8004595 0.596017094,42.0161171 6.51111111,49.1414324 C7.73570085,50.6140811 12.6340598,52.7003333 13.3853419,52.7579369 C15.9447094,53.8298649 18.9924103,53.4817387 21.2738034,51.5908378 C24.5393761,48.875955 24.9901453,44.0272342 22.2755128,40.7538468 C19.9315128,37.9312703 17.1567778,36.7341171 14.0214274,38.3495225 C8.02369231,29.5336667 10.9436752,21.126045 18.4489829,14.8848198 C26.1120598,8.52838739 34.9521453,10.9377207 41.761265,19.1374685 C49.8225214,28.8524414 48.7281538,40.7012523 46.4793162,48.3975946 C42.1995128,63.0614685 27.331641,85.1787477 38.3855043,98.4926937 C44.7338376,106.138946 52.1239487,100.779306 50.8668034,99.2690901 C49.6146667,97.7588739 41.5659316,91.2396486 45.497641,80.7608018 C55.4396068,54.2756667 66.1453761,31.1590901 50.1931538,11.9495405 C41.7687778,1.8088018 26.9159316,-5.54442342 10.9461795,7.71943243" id="Fill-16" fill="#E6F4FA" mask="url(#mask-4)"></path>
                            </g>
                            <path d="M109.953133,209.934128 C109.953133,214.312002 86.4780735,217.85838 57.521159,217.85838 C28.5592359,217.85838 5.08417607,214.312002 5.08417607,209.934128 C5.08417607,205.558759 28.5592359,202.01238 57.521159,202.01238 C86.4780735,202.01238 109.953133,205.558759 109.953133,209.934128" id="Fill-19" fill="#E6F4FA"></path>
                            <path d="M71.0757897,202.060968 C71.0757897,202.313923 78.6662427,202.318932 95.0517043,204.883544 C104.668115,206.391256 110.340294,208.715436 110.340294,209.892553 C110.340294,212.18167 98.9909265,214.796373 100.162926,214.555941 C107.212456,213.09331 111.765226,211.88113 111.757713,209.98522 C111.757713,207.260319 104.07961,205.432031 94.5683795,204.079598 C88.1349009,203.16295 79.6353966,202.12358 75.2904821,202.040932 C71.5566103,201.963292 71.0757897,202.060968 71.0757897,202.060968" id="Fill-21" fill="#E6F4FA"></path>
                            <path d="M186.94001,42.8904396 C176.179147,41.8961514 168.027737,48.6633225 162.636036,53.1438811 C157.241831,57.6244396 149.095429,64.3891063 148.09372,75.1534667 C147.492694,81.6701874 148.925138,98.9863315 148.925138,98.9863315 C164.233762,100.406386 185.394874,80.5506739 185.394874,80.5506739 C185.394874,80.5506739 208.794805,63.394818 210.217232,48.0872865 C210.217232,48.0872865 193.458634,43.4965297 186.94001,42.8904396" id="Fill-23" fill="#E6F4FA"></path>
                            <path d="M164.073739,43.9493441 C167.684902,48.297164 167.08638,54.7537766 162.738962,58.3677766 C158.389038,61.9767676 151.933021,61.3832 148.321859,57.0303712 C144.710697,52.6800468 145.306714,46.2234342 149.654132,42.6119387 C154.004056,38.9979387 160.460073,39.5965153 164.073739,43.9493441" id="Fill-25" fill="#E6F4FA"></path>
                            <path d="M145.166975,94.4406559 C145.166975,94.4406559 142.369702,97.1154667 143.301291,98.0496468 C144.235385,98.983827 155.434497,99.9180072 180.394591,81.4848541 C205.359693,63.0517009 209.807283,50.4891063 209.807283,50.4891063 C209.807283,50.4891063 191.465984,71.4392865 178.148257,79.9270523 C153.916907,95.3673225 145.958326,95.4850342 145.958326,95.4850342 L148.948428,90.9819351 C148.948428,90.9819351 146.486727,92.2391964 145.166975,94.4406559" id="Fill-27" fill="#E6F4FA"></path>
                            <path d="M106.607674,211.262016 C106.607674,207.387548 84.8505462,204.249404 58.0147513,204.249404 C31.1814607,204.249404 9.42433248,207.387548 9.42433248,211.262016 C9.42433248,215.13398 31.1814607,218.26962 58.0147513,218.26962 C84.8505462,218.26962 106.607674,215.13398 106.607674,211.262016" id="Fill-29" fill="#E6F4FA"></path>
                            <path d="M146.800763,146.115596 C145.21055,147.109885 140.454934,146.67911 132.103182,140.866155 C124.480174,135.561614 116.030755,132.390912 109.006268,130.595182 C101.708815,128.734335 97.7094897,126.936101 97.3413615,130.888209 C96.9782419,134.840317 94.8045325,137.715488 92.5581991,137.715488 C91.4187547,137.715488 88.2633701,141.609993 93.3971308,142.083344 C98.5333957,142.561705 108.15231,144.04938 115.319541,152.679903 C122.489276,161.317939 151.438678,188.153705 176.256028,178.959668 C193.748379,172.475506 193.360216,164.701524 193.360216,164.701524 C193.360216,164.701524 186.603686,154.543254 176.281071,148.52493 C165.96096,142.506605 149.395191,144.490173 146.800763,146.115596" id="Fill-31" fill="#E6F4FA"></path>
                            <path d="M22.6556615,203.892762 C13.1243966,205.147519 5.08317436,207.261321 5.08317436,209.986222 C5.08317436,212.881429 12.3280376,238.828095 30.3462855,253.524528 C40.1279778,261.501375 47.180012,263.765447 62.0478838,263.765447 C77.9099521,263.765447 93.1835162,251.383177 98.8582,242.477159 C104.818371,233.125339 109.952132,216.598114 111.757713,209.986222 C102.146311,216.805987 64.5521573,217.857879 53.5083111,217.857879 C35.9909179,217.857879 7.10662735,213.05424 7.10662735,209.698204 C7.10662735,208.030204 10.8354906,206.600132 20.6797897,204.754312 C23.6072855,204.205825 27.9622171,203.194005 22.6556615,203.892762" id="Fill-33" fill="#E6F4FA"></path>
                            <path d="M89.5813692,131.426177 C81.7655316,133.029059 69.6348308,151.963114 65.5303265,168.17978 C59.7805145,190.913168 58.8514291,213.626519 58.6936598,217.851618 C66.4794462,217.821564 73.8294889,217.543564 80.423241,217.052681 C79.6569333,213.341005 76.6943778,199.546195 78.4022923,180.870105 C81.5601812,146.370555 87.820865,138.273492 93.0472838,138.626627 C98.2737026,138.984771 98.8571983,135.14787 98.8571983,132.816177 C98.8571983,130.481978 96.8412581,129.938501 89.5813692,131.426177" id="Fill-35" fill="#E6F4FA"></path>
                            <path d="M22.6556615,203.892762 C13.1243966,205.147519 5.08317436,207.261321 5.08317436,209.986222 C5.08317436,214.451753 29.6851573,217.857879 53.5083111,217.857879 C59.3883453,217.857879 70.9931487,217.707609 74.987465,216.958762 C74.987465,216.958762 59.6838496,216.808492 53.498294,216.808492 C35.9809009,216.808492 7.10662735,213.05424 7.10662735,209.698204 C7.10662735,208.030204 10.8354906,206.600132 20.6797897,204.754312 C23.6072855,204.205825 27.9622171,203.194005 22.6556615,203.892762" id="Fill-37" fill="#E6F4FA"></path>
                            <path d="M49.8408026,183.516865 C49.8408026,183.516865 46.7580419,167.292685 53.351794,152.456 C58.0172556,141.962126 55.320153,136.715189 47.3365291,128.730829 C43.4223496,124.818793 45.4583239,117.147495 47.6495632,109.320919 C47.6495632,109.320919 42.5408453,119.025874 42.5408453,126.226324 C42.5408453,133.426775 44.3940077,135.089766 47.8699393,142.192541 C51.9393838,150.504991 39.387965,161.309423 43.1443752,170.075189 C46.9007855,178.840955 49.8408026,183.516865 49.8408026,183.516865" id="Fill-39" fill="#E6F4FA"></path>
                            <path d="M33.2156821,188.347303 C33.2156821,188.347303 22.8705282,181.985861 24.0700752,171.409339 C25.2721265,160.835321 30.6087333,157.361573 28.7355368,152.863483 C26.0509556,146.419393 22.3271009,142.687681 22.3271009,142.687681 C22.3271009,142.687681 34.139759,146.865195 32.6947932,159.615627 C31.2473231,172.371068 25.0792974,178.128924 33.2156821,188.347303" id="Fill-41" fill="#E6F4FA"></path>
                        </g>
                    </g>
                </g>
            </g>
        </g>
    </g>
</svg>