<?xml version="1.0" encoding="UTF-8"?>
<svg width="279px" height="353px" viewBox="0 0 279 353" version="1.1" xmlns="http://www.w3.org/2000/svg" xmlns:xlink="http://www.w3.org/1999/xlink">
    <!-- Generator: Sketch 49.2 (51160) - http://www.bohemiancoding.com/sketch -->
    <title>monsterra-leaf</title>
    <desc>Created with Sketch.</desc>
    <defs></defs>
    <g id="Designs-(Light)" stroke="none" stroke-width="1" fill="none" fill-rule="evenodd">
        <g id="Mike-King---Work---Case-Study---GoHawaii" transform="translate(-306.000000, -1582.000000)">
            <g id="section--two-column" transform="translate(0.000000, 1456.000000)">
                <g id="background">
                    <g id="monsterra-leaf" transform="translate(266.000000, 91.000000)">
                        <path d="M191.96117,132.653631 C185.505335,126.783282 194.62233,121.223492 203.099029,127.572445 C212.645681,134.72264 198.417004,138.523979 191.96117,132.653631 M162.344073,168.508354 C163.061577,161.297336 161.276897,152.582699 165.951348,151.182135 C171.241419,149.596316 174.036992,156.122364 173.285788,166.898816 C172.536004,177.672811 161.62903,175.720792 162.344073,168.508354 M133.029087,219.283399 C128.297172,211.092168 131.144385,193.019101 136.62915,194.432608 C145.69839,196.765432 137.762043,227.478509 133.029087,219.283399 M107.843243,225.511125 C103.952102,218.893234 113.34377,207.383947 119.145563,210.766383 C124.463905,213.86642 111.735802,232.126558 107.843243,225.511125 M185.334134,100.557983 C184.618364,116.820706 176.549782,128.084602 175.092848,109.764635 C173.636956,91.4485472 185.66809,92.9256353 185.334134,100.557983 M130.362598,134.190361 C129.396982,125.443973 155.141781,132.856145 152.179003,140.773018 C150.328801,145.7113 131.332094,142.935712 130.362598,134.190361 M93.8561817,189.844476 C84.3477328,187.362934 94.4300993,178.431538 102.562704,174.764337 C110.696728,171.094677 120.860075,172.794314 123.849187,179.576284 C127.400056,187.636152 103.362169,192.324597 93.8561817,189.844476 M239.150987,143.688026 C256.949724,158.332195 263.417041,171.162683 266.517951,192.040742 C294.933414,163.661483 287.713724,131.643105 269.520633,112.947153 C251.3265,94.2473226 227.194828,107.6243 214.84478,111.963029 C202.494732,116.301758 198.455725,112.87864 206.435302,100.006845 C214.670198,86.715561 211.327657,64.056287 197.946967,46.5003426 C184.563815,28.9429771 151.153349,27.1289641 130.840403,40.525014 C156.58782,49.9277562 168.467881,60.6075385 171.5807,76.0594281 C174.693519,91.5113177 165.340132,95.3944997 152.904446,76.2017605 C140.467717,57.0051426 124.103217,50.2900008 104.95588,51.2482729 C85.8071242,52.2090027 68.5252922,71.7231303 64.0365326,93.7080421 C94.111437,76.6646986 121.95035,82.4448649 138.632821,101.864494 C155.315292,121.284123 144.599178,131.733823 129.304131,113.492063 C114.011545,95.251724 85.3453197,91.8480593 61.1464738,110.081892 C40.4502018,133.611527 40.9596708,153.566868 42.5089716,163.20076 C65.3613373,146.355545 97.4557136,140.03021 116.744351,148.302528 C136.035449,156.576268 124.569283,164.11889 107.192257,160.112417 C89.815231,156.105944 56.2580513,160.230106 45.7944439,179.302844 C32.0688319,221.072038 36.4751753,236.176271 40.8495269,244.7083 C56.8662705,217.91004 81.8363618,215.398237 91.6956617,217.266404 C101.557423,219.135991 97.3479005,229.269128 82.313839,228.781375 C67.2797774,228.293621 49.4128415,246.922702 49.354928,262.182402 C49.2984335,277.439643 56.8446129,300.366434 60.8694021,307.605447 C83.6151833,303.262201 111.880442,280.258759 106.571496,257.532438 C101.260088,234.804697 117.577088,234.394722 117.183954,246.727975 C116.790819,259.061228 113.330188,288.740699 98.5046511,295.474307 C126.852958,300.372177 148.541133,295.962282 151.34453,284.473358 C154.150387,272.985855 156.166173,267.595936 149.363909,250.013945 C142.557765,232.43299 151.04481,216.783758 155.480021,205.316163 C159.914189,193.84469 173.590796,195.734386 163.658322,212.937935 C153.725849,230.141484 155.590259,234.494768 158.653365,247.185049 C161.717513,259.879208 166.894789,272.698909 162.576545,281.127566 C184.216049,273.959941 199.578019,265.353649 201.006186,244.87857 C202.434354,224.403491 204.714246,212.877748 189.762863,190.459786 C174.812899,168.039366 189.430954,154.088276 200.462975,171.926649 C211.494997,189.765022 229.038289,240.854477 200.397622,265.826847 C254.098286,229.655178 257.854758,202.879417 249.526018,181.683208 C243.621724,166.661147 237.651566,161.228494 221.085384,149.468503 C205.618488,138.487369 221.353668,129.041399 239.150987,143.688026" id="Fill-1" fill="#F2F7F3" transform="translate(161.032989, 169.663348) rotate(-18.000000) translate(-161.032989, -169.663348) "></path>
                        <path d="M262.759249,252.524585 C257.280444,251.331962 260.567727,245.308671 267.32492,246.118342 C274.934981,247.030133 268.238055,253.717207 262.759249,252.524585 M257.797278,281.993667 C255.879697,277.750192 252.086537,273.473892 254.237881,271.192592 C256.672297,268.6104 260.324834,271.343949 263.369223,277.582422 C266.413613,283.819072 259.716686,286.237142 257.797278,281.993667 M257.797278,319.668867 C252.532147,316.63078 248.309814,305.658288 251.816249,304.682672 C257.612825,303.066978 263.064236,322.708778 257.797278,319.668867 M245.782259,331.226728 C241.490528,328.79407 243.019115,319.371623 247.334587,319.389859 C251.290284,319.406271 250.073989,333.657563 245.782259,331.226728 M248.759076,236.792544 C253.585903,246.072752 252.714773,254.933536 246.017847,245.206551 C239.322747,235.481389 246.492677,232.437831 248.759076,236.792544 M228.973284,273.171178 C225.625734,268.614047 242.334264,264.467222 243.229135,269.824905 C243.786147,273.167531 232.322661,277.726485 228.973284,273.171178 M226.538869,315.87217 C220.45009,317.546218 223.191319,309.336452 226.538869,304.682672 C229.886419,300.027067 236.088426,297.707471 239.930895,300.521258 C244.496566,303.865707 232.625821,314.198122 226.538869,315.87217 M292.565776,243.503325 C307.175923,245.93416 314.897386,250.996423 323.331093,261.618787 C330.026193,236.695894 315.721033,221.197273 299.589604,216.638318 C283.456349,212.07754 274.325007,227.275271 268.846202,233.657807 C263.367397,240.040343 260.019847,239.433091 260.324834,229.706105 C260.637126,219.66364 251.496652,208.127662 238.409613,202.656916 C225.320748,197.186171 206.14493,206.911333 199.144843,220.892734 C216.494393,217.852823 226.537042,219.97912 233.233969,227.577985 C239.930895,235.176851 235.973371,240.343058 222.886332,233.657807 C209.797466,226.970733 198.533043,228.4916 188.185406,235.176851 C177.83777,241.863925 174.49022,258.276162 179.055891,271.953025 C190.316662,252.805416 207.666211,247.077546 223.189492,252.524585 C238.712774,257.971623 236.106689,267.229948 221.733957,261.992621 C207.363051,256.755294 190.316662,264.071505 182.708428,281.993667 C178.750904,301.737587 185.446004,312.679078 189.403527,317.542571 C196.708601,300.825796 212.536869,286.993928 225.928895,285.400117 C239.322747,283.806307 235.365224,291.687828 224.407613,295.041395 C213.450003,298.394961 196.100454,311.471867 196.40544,325.447798 C202.187406,353.102416 209.49248,360.092205 214.668124,363.434831 C214.971285,343.375431 228.06015,333.954807 234.147103,331.826687 C240.235882,329.698567 241.149016,336.69018 232.625821,341.249134 C224.102627,345.808089 220.145103,361.915787 225.015761,370.426443 C229.886419,378.935276 241.452176,389.269514 246.017847,392.004887 C257.280444,382.279725 265.619186,360.396743 255.362863,349.455252 C245.104713,338.513761 254.053428,333.043016 257.797278,340.032805 C261.541128,347.022594 269.151189,364.65116 263.064236,373.161816 C280.413786,366.77928 291.066409,357.356832 288.935154,350.062505 C286.805725,342.768178 286.195752,339.121014 276.761249,331.522149 C267.32492,323.925107 267.019934,312.489425 265.803639,304.682672 C264.585518,296.874094 272.803726,293.531469 272.803726,306.296542 C272.803726,319.061614 275.239968,320.885196 281.021933,326.963194 C286.805725,333.043016 293.805812,338.513761 294.110799,344.59176 C303.850288,333.650269 309.63408,323.925107 303.850288,312.071825 C298.066496,300.218543 295.63208,293.071926 280.108799,285.400117 C264.585518,277.726485 268.238055,265.265951 280.108799,271.648487 C291.979544,278.031023 318.157275,300.825796 310.242227,323.925107 C328.504911,286.54168 321.992438,270.433982 310.547214,261.314249 C302.43493,254.851475 297.367035,253.746384 284.369483,252.524585 C272.23393,251.383022 277.955629,241.070667 292.565776,243.503325" id="Fill-1-Copy" fill="#E1EEE3" transform="translate(251.038648, 296.556842) scale(-1, 1) rotate(-345.000000) translate(-251.038648, -296.556842) "></path>
                    </g>
                </g>
            </g>
        </g>
    </g>
</svg>