<?xml version="1.0" encoding="UTF-8"?>
<svg width="168px" height="262px" viewBox="0 0 168 262" version="1.1" xmlns="http://www.w3.org/2000/svg" xmlns:xlink="http://www.w3.org/1999/xlink">
    <!-- Generator: Sketch 49.2 (51160) - http://www.bohemiancoding.com/sketch -->
    <title>map-marker-icon</title>
    <desc>Created with Sketch.</desc>
    <defs></defs>
    <g id="Designs-(Light)" stroke="none" stroke-width="1" fill="none" fill-rule="evenodd">
        <g id="Mike-King---Work---Case-Studies---Tour-Aloha" transform="translate(-373.000000, -1597.000000)" fill="#F2F7F3">
            <g id="section--two-column" transform="translate(0.000000, 1456.000000)">
                <g id="background">
                    <g id="marker-icon" transform="translate(373.000000, 141.000000)">
                        <path d="M166.572169,75.3107586 C162.09086,35.0658472 128.145989,5.09205653 94.5571107,0.687032356 C44.718251,-5.8332757 -0.461303528,34.8913908 0.0831546035,87.4027681 C0.0831546035,98.3935214 1.41288889,109.111687 5.96749056,119.17564 C25.1910507,161.623064 44.3727295,204.081391 63.6695821,246.474297 C65.1354309,249.70174 66.9572716,253.016412 69.3863925,255.458802 C80.4744917,266.634915 96.7349432,262.295312 103.896662,246.419779 C122.711878,204.779217 141.328158,163.051426 160.352782,121.519898 C167.158508,106.658394 168.341658,91.1426772 166.572169,75.3107586 L166.572169,75.3107586 Z M87.5210364,130.678859 C65.5123635,133.055828 44.2889667,115.359407 42.1844266,92.8763377 C39.8076575,67.3947994 56.09952,46.2746711 79.8043894,43.8213779 C103.362674,41.3789883 125.046766,61.2670182 125.277114,84.8949573 C127.413065,107.367123 110.210282,128.225566 87.5210364,130.678859 L87.5210364,130.678859 Z" id="Fill-1"></path>
                    </g>
                </g>
            </g>
        </g>
    </g>
</svg>